<?xml version="1.0" standalone="no"?>
<!DOCTYPE svg PUBLIC "-//W3C//DTD SVG 20010904//EN"
 "http://www.w3.org/TR/2001/REC-SVG-20010904/DTD/svg10.dtd">
<svg version="1.0" xmlns="http://www.w3.org/2000/svg"
 width="1080.000000pt" height="1350.000000pt" viewBox="0 0 1080.000000 1350.000000"
 preserveAspectRatio="xMidYMid meet">

<g transform="translate(0.000000,1350.000000) scale(0.100000,-0.100000)"
fill="#000000" stroke="none">
<path d="M4687 9469 c-186 -21 -364 -109 -517 -256 -180 -171 -279 -361 -298
-568 -28 -307 105 -608 352 -796 168 -128 326 -181 541 -183 105 0 146 4 215
22 112 30 225 85 330 161 47 33 90 61 96 61 6 0 21 -12 35 -26 13 -14 50 -44
83 -66 193 -132 444 -184 666 -138 126 26 196 53 302 117 189 114 333 306 398
534 33 113 38 306 12 426 -73 329 -299 576 -620 677 -272 86 -551 35 -804
-148 l-77 -55 -48 43 c-88 79 -208 143 -328 175 -35 9 -251 33 -265 30 -3 -1
-36 -5 -73 -10z m220 -129 c190 -26 326 -101 439 -243 32 -40 167 -182 300
-317 l243 -245 3 -60 3 -59 135 -68 c74 -37 141 -68 150 -68 17 0 120 102 120
119 0 6 -31 74 -70 150 l-69 139 -59 7 -59 7 -243 243 -243 243 55 37 c81 53
190 94 302 112 370 61 744 -182 851 -551 49 -170 43 -321 -19 -492 -81 -222
-274 -400 -516 -475 -63 -20 -97 -24 -210 -24 -122 0 -143 3 -220 29 -179 60
-241 108 -532 407 -119 123 -219 226 -222 230 -3 3 2 45 11 93 l16 88 -90 90
-89 89 -72 -20 c-39 -11 -77 -23 -83 -27 -7 -4 21 -38 71 -89 l83 -83 -13 -62
c-14 -66 -19 -71 -94 -89 l-49 -12 -84 83 c-95 92 -91 93 -119 -15 l-18 -68
89 -89 90 -90 89 16 90 15 173 -173 c95 -95 173 -175 173 -179 0 -12 -179 -98
-250 -121 -97 -30 -298 -32 -400 -5 -154 43 -310 145 -406 265 -100 126 -173
331 -174 485 0 211 136 471 319 608 200 148 376 198 598 169z"/>
<path d="M1587 7357 c-13 -9 -19 -33 -24 -86 -6 -72 -6 -73 15 -62 27 14 817
15 893 1 120 -23 225 -96 276 -192 l22 -43 0 70 c1 174 -136 296 -356 316
-161 14 -806 11 -826 -4z"/>
<path d="M3010 7363 c-53 -7 -60 -17 -60 -96 0 -55 3 -68 12 -59 16 16 903 17
913 2 17 -28 26 -4 23 62 -3 66 -5 74 -28 85 -19 10 -121 12 -425 11 -220 -1
-416 -3 -435 -5z"/>
<path d="M4029 7356 c-22 -10 -24 -19 -27 -84 -3 -72 -3 -73 19 -62 35 19 646
7 727 -14 141 -36 242 -115 275 -213 l16 -48 0 66 c2 165 -75 268 -243 327
-61 21 -99 25 -271 33 -270 12 -467 10 -496 -5z"/>
<path d="M5465 7361 c-48 -7 -28 22 -317 -491 -113 -201 -229 -405 -258 -455
-85 -147 -92 -163 -80 -185 24 -45 45 -24 136 137 49 87 172 305 274 485 102
180 193 337 202 348 16 18 30 20 161 20 100 0 148 -4 159 -12 8 -7 73 -123
143 -258 70 -135 186 -356 258 -492 133 -251 152 -275 176 -230 12 22 -6 64
-97 229 -32 59 -92 171 -132 248 -40 77 -76 145 -80 150 -4 6 -53 98 -108 206
-55 107 -114 218 -129 245 -29 48 -30 49 -89 55 -73 8 -166 8 -219 0z"/>
<path d="M6372 7354 c-19 -13 -22 -24 -22 -85 0 -66 1 -69 19 -59 13 6 167 10
433 10 439 0 489 -5 579 -51 60 -30 129 -98 153 -149 l21 -45 3 56 c4 71 -27
157 -75 210 -20 22 -68 55 -109 76 -70 34 -82 37 -207 44 -72 4 -276 8 -452 8
-275 1 -324 -1 -343 -15z"/>
<path d="M8333 7360 c-21 -9 -113 -166 -475 -810 -85 -151 -157 -282 -161
-292 -7 -19 26 -53 45 -45 7 3 87 137 178 298 277 495 392 694 404 701 20 14
291 9 308 -4 8 -7 51 -80 95 -163 140 -262 269 -505 356 -670 87 -163 106
-183 131 -142 13 21 29 -11 -331 664 -229 429 -248 461 -276 467 -44 9 -249 6
-274 -4z"/>
<path d="M2295 6903 c-26 -10 -91 -17 -182 -21 l-143 -5 0 -68 0 -69 133 0
c72 0 149 4 170 9 73 17 112 81 87 142 -7 16 -15 28 -19 28 -3 -1 -24 -8 -46
-16z"/>
<path d="M3360 6860 l0 -60 193 0 c105 0 209 -4 230 -9 l37 -9 0 69 0 69 -230
0 -230 0 0 -60z"/>
<path d="M7105 6911 c-16 -15 -146 -31 -249 -31 l-96 0 0 -70 0 -70 133 0
c203 0 257 23 257 110 0 56 -21 84 -45 61z"/>
<path d="M4590 6898 c-14 -5 -62 -10 -107 -11 l-83 -2 0 -72 0 -73 73 0 c131
0 177 27 177 101 0 68 -10 78 -60 57z"/>
<path d="M2602 6613 l-54 -25 58 -51 c56 -51 105 -119 177 -249 21 -37 42 -70
47 -73 21 -13 50 6 50 31 0 22 -201 378 -219 388 -3 2 -30 -8 -59 -21z"/>
<path d="M5487 6618 c-29 -47 -67 -117 -67 -122 0 -3 61 -6 135 -6 l136 0 -38
73 -38 72 -57 3 c-50 3 -59 0 -71 -20z"/>
<path d="M7380 6610 l-54 -27 29 -16 c64 -33 116 -103 219 -289 38 -70 61 -84
86 -53 10 12 10 21 1 42 -22 52 -207 367 -217 368 -5 1 -34 -10 -64 -25z"/>
<path d="M8382 6628 c-8 -11 -57 -102 -70 -130 -2 -5 57 -8 132 -8 75 0 136 2
136 5 0 11 -53 111 -68 128 -18 21 -114 24 -130 5z"/>
<path d="M3800 6500 c-8 -5 -108 -10 -228 -10 l-213 0 3 -61 3 -61 270 -3
c149 -1 278 -6 288 -10 15 -6 17 0 17 55 0 87 -9 100 -73 100 -29 0 -59 -5
-67 -10z"/>
<path d="M4035 6018 c-360 -36 -597 -178 -714 -429 -61 -132 -76 -214 -75
-419 0 -145 4 -190 22 -262 66 -267 229 -437 502 -526 156 -51 429 -74 635
-52 479 49 728 262 789 673 20 131 20 202 1 336 -19 129 -36 183 -86 281 -117
227 -343 357 -689 396 -138 15 -248 16 -385 2z m375 -507 c117 -36 186 -118
210 -245 26 -140 -12 -289 -91 -361 -84 -75 -172 -100 -341 -93 -101 4 -121 7
-178 35 -80 38 -125 81 -159 153 -24 50 -26 67 -26 175 0 101 4 127 22 167 64
140 197 202 408 193 51 -2 119 -13 155 -24z"/>
<path d="M7965 6014 c-404 -51 -650 -250 -727 -586 -30 -130 -30 -373 0 -504
95 -418 438 -620 1017 -601 341 12 562 89 721 253 164 169 237 470 190 779
-51 332 -246 542 -586 630 -166 43 -412 55 -615 29z m424 -505 c80 -27 141
-80 178 -158 25 -52 27 -65 27 -176 -1 -100 -4 -128 -22 -167 -31 -70 -93
-131 -165 -164 -60 -28 -68 -29 -212 -29 -147 0 -151 1 -215 31 -127 60 -180
144 -188 300 -11 205 78 338 248 373 30 6 64 13 75 15 46 11 211 -4 274 -25z"/>
<path d="M1601 5974 c-19 -25 -21 -40 -21 -190 l0 -163 27 -21 c25 -20 38 -21
237 -20 116 0 217 1 224 0 9 0 12 -127 12 -598 0 -568 1 -600 18 -615 16 -15
50 -17 274 -17 234 0 256 1 271 18 15 17 17 74 17 615 l0 597 225 0 226 0 24
25 c24 24 25 27 25 185 0 158 -1 161 -25 185 l-24 25 -745 0 -745 0 -20 -26z"/>
<path d="M5327 5980 l-27 -21 0 -788 c0 -760 1 -789 19 -805 17 -16 62 -17
587 -13 509 3 575 5 629 21 275 82 471 278 550 552 22 76 25 105 25 244 0 125
-4 173 -20 236 -62 241 -232 435 -460 524 -161 63 -158 63 -740 67 -535 4
-536 4 -563 -17z m1078 -511 c57 -29 109 -91 127 -152 7 -23 13 -91 13 -152 0
-102 -2 -114 -30 -170 -33 -66 -91 -117 -153 -135 -20 -5 -135 -10 -254 -10
l-218 0 0 326 0 325 233 -3 c227 -3 234 -4 282 -29z"/>
</g>
</svg>
